<mxfile host="app.diagrams.net" agent="Mozilla/5.0 (X11; Linux x86_64) AppleWebKit/537.36 (KHTML, like Gecko) Chrome/126.0.0.0 Safari/537.36" version="24.7.4">
  <diagram name="Page-1" id="3sUtgb0eCBhz-WQ-Dicv">
    <mxGraphModel dx="1410" dy="754" grid="1" gridSize="10" guides="1" tooltips="1" connect="1" arrows="1" fold="1" page="1" pageScale="1" pageWidth="1100" pageHeight="850" math="0" shadow="0">
      <root>
        <mxCell id="0" />
        <mxCell id="1" parent="0" />
        <mxCell id="r6EAqkYCc3j99P0Ny-HB-1" value="" style="rounded=1;whiteSpace=wrap;html=1;" vertex="1" parent="1">
          <mxGeometry x="310" y="260" width="540" height="140" as="geometry" />
        </mxCell>
        <mxCell id="r6EAqkYCc3j99P0Ny-HB-2" value="Open5GS" style="rounded=1;whiteSpace=wrap;html=1;" vertex="1" parent="1">
          <mxGeometry x="660" y="410" width="140" height="100" as="geometry" />
        </mxCell>
        <mxCell id="r6EAqkYCc3j99P0Ny-HB-23" style="edgeStyle=orthogonalEdgeStyle;rounded=0;orthogonalLoop=1;jettySize=auto;html=1;exitX=0;exitY=0.5;exitDx=0;exitDy=0;entryX=0;entryY=0.5;entryDx=0;entryDy=0;" edge="1" parent="1" source="r6EAqkYCc3j99P0Ny-HB-3" target="r6EAqkYCc3j99P0Ny-HB-21">
          <mxGeometry relative="1" as="geometry" />
        </mxCell>
        <mxCell id="r6EAqkYCc3j99P0Ny-HB-3" value="srsRAN gNB" style="rounded=1;whiteSpace=wrap;html=1;verticalAlign=bottom;" vertex="1" parent="1">
          <mxGeometry x="310" y="410" width="210" height="80" as="geometry" />
        </mxCell>
        <mxCell id="r6EAqkYCc3j99P0Ny-HB-4" value="" style="image;sketch=0;aspect=fixed;html=1;points=[];align=center;fontSize=12;image=img/lib/mscae/Docker.svg;imageBackground=default;" vertex="1" parent="1">
          <mxGeometry x="670" y="425" width="35.37" height="29" as="geometry" />
        </mxCell>
        <mxCell id="r6EAqkYCc3j99P0Ny-HB-24" style="edgeStyle=orthogonalEdgeStyle;rounded=0;orthogonalLoop=1;jettySize=auto;html=1;" edge="1" parent="1" source="r6EAqkYCc3j99P0Ny-HB-7" target="r6EAqkYCc3j99P0Ny-HB-21">
          <mxGeometry relative="1" as="geometry">
            <Array as="points">
              <mxPoint x="380" y="370" />
              <mxPoint x="380" y="370" />
            </Array>
          </mxGeometry>
        </mxCell>
        <mxCell id="r6EAqkYCc3j99P0Ny-HB-7" value="metrics collection server" style="shape=process;whiteSpace=wrap;html=1;backgroundOutline=1;" vertex="1" parent="1">
          <mxGeometry x="320" y="417" width="120" height="35" as="geometry" />
        </mxCell>
        <mxCell id="r6EAqkYCc3j99P0Ny-HB-8" value="iperf -s" style="shape=process;whiteSpace=wrap;html=1;backgroundOutline=1;fontSize=15;" vertex="1" parent="1">
          <mxGeometry x="310" y="530" width="90" height="30" as="geometry" />
        </mxCell>
        <mxCell id="r6EAqkYCc3j99P0Ny-HB-9" value="iperf -s" style="shape=process;whiteSpace=wrap;html=1;backgroundOutline=1;fontSize=15;" vertex="1" parent="1">
          <mxGeometry x="430" y="530" width="90" height="30" as="geometry" />
        </mxCell>
        <mxCell id="r6EAqkYCc3j99P0Ny-HB-12" style="edgeStyle=orthogonalEdgeStyle;rounded=0;orthogonalLoop=1;jettySize=auto;html=1;" edge="1" parent="1" source="r6EAqkYCc3j99P0Ny-HB-9">
          <mxGeometry relative="1" as="geometry">
            <mxPoint x="476" y="490" as="targetPoint" />
            <Array as="points">
              <mxPoint x="475" y="510" />
              <mxPoint x="477" y="510" />
            </Array>
          </mxGeometry>
        </mxCell>
        <mxCell id="r6EAqkYCc3j99P0Ny-HB-14" style="edgeStyle=orthogonalEdgeStyle;rounded=0;orthogonalLoop=1;jettySize=auto;html=1;entryX=0.214;entryY=0.988;entryDx=0;entryDy=0;entryPerimeter=0;" edge="1" parent="1" source="r6EAqkYCc3j99P0Ny-HB-8" target="r6EAqkYCc3j99P0Ny-HB-3">
          <mxGeometry relative="1" as="geometry" />
        </mxCell>
        <mxCell id="r6EAqkYCc3j99P0Ny-HB-17" value="" style="endArrow=classic;startArrow=classic;html=1;rounded=0;exitX=1;exitY=0.5;exitDx=0;exitDy=0;" edge="1" parent="1" source="r6EAqkYCc3j99P0Ny-HB-3">
          <mxGeometry width="50" height="50" relative="1" as="geometry">
            <mxPoint x="520" y="410" as="sourcePoint" />
            <mxPoint x="660" y="450" as="targetPoint" />
          </mxGeometry>
        </mxCell>
        <mxCell id="r6EAqkYCc3j99P0Ny-HB-18" value="" style="rounded=0;whiteSpace=wrap;html=1;" vertex="1" parent="1">
          <mxGeometry x="580" y="370" width="20" height="105" as="geometry" />
        </mxCell>
        <mxCell id="r6EAqkYCc3j99P0Ny-HB-27" style="edgeStyle=orthogonalEdgeStyle;rounded=0;orthogonalLoop=1;jettySize=auto;html=1;entryX=1;entryY=0.422;entryDx=0;entryDy=0;entryPerimeter=0;" edge="1" parent="1" source="r6EAqkYCc3j99P0Ny-HB-19" target="r6EAqkYCc3j99P0Ny-HB-21">
          <mxGeometry relative="1" as="geometry">
            <Array as="points">
              <mxPoint x="590" y="308" />
            </Array>
          </mxGeometry>
        </mxCell>
        <mxCell id="r6EAqkYCc3j99P0Ny-HB-19" value="Scapy PCAP sniffer" style="text;html=1;align=center;verticalAlign=middle;whiteSpace=wrap;rounded=0;" vertex="1" parent="1">
          <mxGeometry x="545" y="340" width="90" height="30" as="geometry" />
        </mxCell>
        <mxCell id="r6EAqkYCc3j99P0Ny-HB-21" value="Data Collection API" style="rounded=1;whiteSpace=wrap;html=1;" vertex="1" parent="1">
          <mxGeometry x="320" y="270" width="200" height="90" as="geometry" />
        </mxCell>
        <mxCell id="r6EAqkYCc3j99P0Ny-HB-22" value="" style="dashed=0;outlineConnect=0;html=1;align=center;labelPosition=center;verticalLabelPosition=bottom;verticalAlign=top;shape=mxgraph.weblogos.json_2" vertex="1" parent="1">
          <mxGeometry x="470" y="280" width="40" height="10" as="geometry" />
        </mxCell>
        <mxCell id="r6EAqkYCc3j99P0Ny-HB-25" value="Internal gNB metrics" style="text;html=1;align=center;verticalAlign=middle;whiteSpace=wrap;rounded=0;" vertex="1" parent="1">
          <mxGeometry x="380" y="370" width="80" height="30" as="geometry" />
        </mxCell>
        <mxCell id="r6EAqkYCc3j99P0Ny-HB-26" value="Graphana KPIs" style="text;html=1;align=center;verticalAlign=middle;whiteSpace=wrap;rounded=0;" vertex="1" parent="1">
          <mxGeometry x="230" y="360" width="60" height="30" as="geometry" />
        </mxCell>
        <mxCell id="r6EAqkYCc3j99P0Ny-HB-28" value="Processed packet visualizations" style="text;html=1;align=center;verticalAlign=middle;whiteSpace=wrap;rounded=0;" vertex="1" parent="1">
          <mxGeometry x="520" y="280" width="120" height="30" as="geometry" />
        </mxCell>
        <mxCell id="r6EAqkYCc3j99P0Ny-HB-30" value="Process Controller" style="rounded=1;whiteSpace=wrap;html=1;" vertex="1" parent="1">
          <mxGeometry x="660" y="270" width="150" height="80" as="geometry" />
        </mxCell>
        <mxCell id="r6EAqkYCc3j99P0Ny-HB-31" value="" style="sketch=0;aspect=fixed;pointerEvents=1;shadow=0;dashed=0;html=1;strokeColor=none;labelPosition=center;verticalLabelPosition=bottom;verticalAlign=top;align=center;fillColor=#00188D;shape=mxgraph.mscae.enterprise.router" vertex="1" parent="1">
          <mxGeometry x="555" y="200" width="50" height="39" as="geometry" />
        </mxCell>
        <mxCell id="r6EAqkYCc3j99P0Ny-HB-32" style="edgeStyle=orthogonalEdgeStyle;rounded=0;orthogonalLoop=1;jettySize=auto;html=1;entryX=0.87;entryY=0.5;entryDx=0;entryDy=0;entryPerimeter=0;" edge="1" parent="1" source="r6EAqkYCc3j99P0Ny-HB-30" target="r6EAqkYCc3j99P0Ny-HB-31">
          <mxGeometry relative="1" as="geometry">
            <Array as="points">
              <mxPoint x="740" y="220" />
            </Array>
          </mxGeometry>
        </mxCell>
        <mxCell id="r6EAqkYCc3j99P0Ny-HB-33" style="edgeStyle=orthogonalEdgeStyle;rounded=0;orthogonalLoop=1;jettySize=auto;html=1;entryX=0.13;entryY=0.5;entryDx=0;entryDy=0;entryPerimeter=0;" edge="1" parent="1" source="r6EAqkYCc3j99P0Ny-HB-21" target="r6EAqkYCc3j99P0Ny-HB-31">
          <mxGeometry relative="1" as="geometry">
            <Array as="points">
              <mxPoint x="420" y="220" />
            </Array>
          </mxGeometry>
        </mxCell>
        <mxCell id="r6EAqkYCc3j99P0Ny-HB-34" value="All gNB metrics" style="text;html=1;align=center;verticalAlign=middle;whiteSpace=wrap;rounded=0;" vertex="1" parent="1">
          <mxGeometry x="460" y="190" width="60" height="30" as="geometry" />
        </mxCell>
        <mxCell id="r6EAqkYCc3j99P0Ny-HB-35" value="Process status / commands" style="text;html=1;align=center;verticalAlign=middle;whiteSpace=wrap;rounded=0;" vertex="1" parent="1">
          <mxGeometry x="640" y="190" width="102.32" height="30" as="geometry" />
        </mxCell>
      </root>
    </mxGraphModel>
  </diagram>
</mxfile>
